<svg xmlns="http://www.w3.org/2000/svg" viewBox="0 0 64 64" width="64" height="64">
  <!-- Clean infinity-knot / interlocking loops mark -->
  <!-- Background circle -->
  <circle cx="32" cy="32" r="32" fill="#ffffff"/>
  <!-- Left loop -->
  <path
    d="M32 18 C26 18 21 21 21 26 C21 31 26 34 32 30 C38 26 42 28 42 33 C42 38 38 42 32 42 C26 42 21 39 21 34"
    fill="none"
    stroke="#3C9A7A"
    stroke-width="5"
    stroke-linecap="round"
    stroke-linejoin="round"
  />
  <!-- Right loop -->
  <path
    d="M32 18 C38 18 43 21 43 26 C43 31 38 34 32 30 C26 26 22 28 22 33 C22 38 26 42 32 42 C38 42 43 39 43 34"
    fill="none"
    stroke="#6DC9A8"
    stroke-width="5"
    stroke-linecap="round"
    stroke-linejoin="round"
  />
</svg>
